HIERARCHY
ROOT Hips
{
	OFFSET 0.00000 0.00000 0.00000
	CHANNELS 6 Xposition Yposition Zposition Zrotation Yrotation Xrotation 
	JOINT LHipJoint
	{
		OFFSET 0 0 0
		CHANNELS 3 Zrotation Yrotation Xrotation
		JOINT LeftUpLeg
		{
			OFFSET 3.13874 -1.57224 1.49786
			CHANNELS 3 Zrotation Yrotation Xrotation
			JOINT LeftLeg
			{
				OFFSET 2.10955 -5.79594 0.00000
				CHANNELS 3 Zrotation Yrotation Xrotation
				JOINT LeftFoot
				{
					OFFSET 2.41843 -6.64458 0.00000
					CHANNELS 3 Zrotation Yrotation Xrotation
					JOINT LeftToeBase
					{
						OFFSET 0.04713 -0.12948 1.66229
						CHANNELS 3 Zrotation Yrotation Xrotation
						End Site
						{
							OFFSET 0.00000 -0.00000 0.85167
						}
					}
				}
			}
		}
	}
	JOINT RHipJoint
	{
		OFFSET 0 0 0
		CHANNELS 3 Zrotation Yrotation Xrotation
		JOINT RightUpLeg
		{
			OFFSET -3.13988 -1.57224 1.49786
			CHANNELS 3 Zrotation Yrotation Xrotation
			JOINT RightLeg
			{
				OFFSET -2.15006 -5.90725 0.00000
				CHANNELS 3 Zrotation Yrotation Xrotation
				JOINT RightFoot
				{
					OFFSET -2.34496 -6.44273 0.00000
					CHANNELS 3 Zrotation Yrotation Xrotation
					JOINT RightToeBase
					{
						OFFSET -0.08699 -0.23900 1.55223
						CHANNELS 3 Zrotation Yrotation Xrotation
						End Site
						{
							OFFSET -0.00000 -0.00000 0.80281
						}
					}
				}
			}
		}
	}
	JOINT LowerBack
	{
		OFFSET 0 0 0
		CHANNELS 3 Zrotation Yrotation Xrotation
		JOINT Spine
		{
			OFFSET 0.01292 1.96517 -0.16495
			CHANNELS 3 Zrotation Yrotation Xrotation
			JOINT Spine1
			{
				OFFSET 0.02122 1.88666 0.19706
				CHANNELS 3 Zrotation Yrotation Xrotation
				JOINT Neck
				{
					OFFSET 0 0 0
					CHANNELS 3 Zrotation Yrotation Xrotation
					JOINT Neck1
					{
						OFFSET -0.01683 1.81591 0.07903
						CHANNELS 3 Zrotation Yrotation Xrotation
						JOINT Head
						{
							OFFSET 0.00815 1.74013 -0.47700
							CHANNELS 3 Zrotation Yrotation Xrotation
							End Site
							{
								OFFSET -0.00204 1.83225 -0.16933
							}
						}
					}
				}
				JOINT LeftShoulder
				{
					OFFSET 0 0 0
					CHANNELS 3 Zrotation Yrotation Xrotation
					JOINT LeftArm
					{
						OFFSET 3.38482 1.41533 0.19802
						CHANNELS 3 Zrotation Yrotation Xrotation
						JOINT LeftForeArm
						{
							OFFSET 4.32712 -0.00000 0.00000
							CHANNELS 3 Zrotation Yrotation Xrotation
							JOINT LeftHand
							{
								OFFSET 3.28587 -0.00000 -0.00000
								CHANNELS 3 Zrotation Yrotation Xrotation
								JOINT LeftFingerBase
								{
									OFFSET 0 0 0
									CHANNELS 3 Zrotation Yrotation Xrotation
									JOINT LeftHandIndex1
									{
										OFFSET 0.43316 -0.00000 -0.00000
										CHANNELS 3 Zrotation Yrotation Xrotation
										End Site
										{
											OFFSET 0.34922 -0.00000 -0.00000
										}
									}
								}
								JOINT LThumb
								{
									OFFSET 0 0 0
									CHANNELS 3 Zrotation Yrotation Xrotation
									End Site
									{
										OFFSET 0.35456 -0.00000 0.35456
									}
								}
							}
						}
					}
				}
				JOINT RightShoulder
				{
					OFFSET 0 0 0
					CHANNELS 3 Zrotation Yrotation Xrotation
					JOINT RightArm
					{
						OFFSET -3.09725 1.62858 -0.14144
						CHANNELS 3 Zrotation Yrotation Xrotation
						JOINT RightForeArm
						{
							OFFSET -4.29104 -0.00000 0.00000
							CHANNELS 3 Zrotation Yrotation Xrotation
							JOINT RightHand
							{
								OFFSET -3.22720 -0.00000 -0.00000
								CHANNELS 3 Zrotation Yrotation Xrotation
								JOINT RightFingerBase
								{
									OFFSET 0 0 0
									CHANNELS 3 Zrotation Yrotation Xrotation
									JOINT RightHandIndex1
									{
										OFFSET -0.54362 -0.00000 -0.00000
										CHANNELS 3 Zrotation Yrotation Xrotation
										End Site
										{
											OFFSET -0.43828 -0.00000 -0.00000
										}
									}
								}
								JOINT RThumb
								{
									OFFSET 0 0 0
									CHANNELS 3 Zrotation Yrotation Xrotation
									End Site
									{
										OFFSET -0.44497 -0.00000 0.44497
									}
								}
							}
						}
					}
				}
			}
		}
	}
}
MOTION
Frames: 13
Frame Time: .0083333
-20.4059 15.7462 1.8596 0 0 0 0 0 0 -21 0 0 0 0 0 0 0 0 0 0 0 0 0 0 21 0 0 0 0 0 0 0 0 0 0 0 0 0 0 0 0 0 0 0 0 0 0 -16 0 0 21 0 0 11 0 0 0 -8 0 0 0 0 0 0 0 0 0 0 0 0 0 0 0 0 0 0 0 0 8 0 0 0 0 0 0 0 0 0 0 0 0 0 0 0 0 0
-20.4059 15.7462 1.8596 15.9902 86.4169 23.1767 0.0000 0.0000 0.0000 -33.7338 -18.3961 1.8720 0.2518 3.2287 8.9161 1.2984 6.4909 -24.7606 11.2850 -18.0718 -63.7038 0.0000 0.0000 0.0000 21.9905 4.0743 -25.9797 -5.5692 -13.9974 43.2272 -0.8493 -12.5338 -26.0692 -0.1163 2.1983 -6.0539 15.4851 8.6291 22.9546 -14.5189 17.5291 -13.9479 -41.6284 1.5582 -23.3783 8.6663 -10.3453 -13.0140 7.7815 -19.0085 47.4896 -0.6749 -2.7700 22.3664 0.0000 -0.0000 0.0000 -40.6208 10.9826 63.2047 24.5623 -35.7532 -8.0328 -0.0000 -0.0000 1.7355 34.8548 30.8373 19.6463 -7.1250 0.0000 -0.0000 4.7340 65.9585 2.3971 0.0000 -0.0000 0.0000 120.0175 -31.8550 -4.4475 -28.2480 39.3435 -10.2805 0.0000 -0.0000 -2.8731 -20.0225 -15.7346 5.6438 7.1250 -0.0000 -0.0000 7.2708 -46.5418 -0.2781
-20.1601 15.7438 1.8397 21.1685 86.2510 28.2011 0.0000 0.0000 0.0000 -34.8010 -18.0773 3.8271 0.1930 2.8292 7.8037 1.3488 6.7711 -25.3284 11.1894 -18.0265 -63.3952 0.0000 0.0000 0.0000 21.2766 5.4609 -27.3179 -4.7268 -13.0694 39.6288 -0.7656 -12.9464 -25.8138 -0.5538 4.7671 -13.2456 15.2861 8.5437 23.1737 -14.5682 17.3129 -13.7494 -41.6095 1.4628 -23.4608 8.7026 -10.3225 -13.0144 7.5296 -18.8962 47.5307 -0.7960 -2.7695 22.3118 -0.0000 0.0000 0.0000 -40.3516 10.3443 64.0629 25.9044 -37.1142 -8.8299 -0.0000 -0.0000 1.0969 35.0626 31.2061 19.9830 -7.1250 0.0000 -0.0000 4.8946 66.4227 2.5309 -0.0000 0.0000 0.0000 120.0805 -31.8090 -4.9079 -28.8123 39.8534 -10.6402 0.0000 -0.0000 -2.8531 -19.8176 -15.9862 5.6679 7.1250 -0.0000 -0.0000 7.5229 -46.7762 -0.3316
-19.9154 15.7343 1.8266 25.8265 86.1707 32.8248 0.0000 0.0000 0.0000 -35.7056 -17.8326 5.3945 0.1605 2.5812 7.1147 1.2561 8.0737 -25.5044 11.6401 -18.2343 -64.8434 0.0000 0.0000 0.0000 20.4481 7.2897 -28.0983 -3.7586 -11.8320 35.1404 -0.7656 -12.9464 -25.8138 -0.5538 4.7671 -13.2456 15.1310 8.4184 23.3119 -14.6223 17.0688 -13.5984 -41.6681 1.3169 -23.5881 8.9656 -10.1213 -13.2151 7.5074 -18.6864 47.5174 -0.8223 -2.6386 22.3258 0.0000 -0.0000 0.0000 -40.0689 9.6798 64.8212 27.1175 -38.2910 -9.5718 -0.0000 -0.0000 0.5476 35.1338 31.3500 20.1080 -7.1250 0.0000 -0.0000 4.9433 66.6009 2.5763 0.0000 -0.0000 0.0000 120.3624 -31.8698 -5.4494 -29.4147 40.3864 -11.0284 0.0000 -0.0000 -2.5414 -19.7707 -15.9750 5.6496 7.1250 -0.0000 -0.0000 7.5640 -46.7582 -0.3300
-19.6669 15.7199 1.8203 29.5466 86.1133 36.5975 0.0000 0.0000 0.0000 -36.5103 -17.6534 6.8430 0.1346 2.3643 6.5136 1.0704 9.8200 -25.3957 12.1012 -18.4331 -66.3093 0.0000 0.0000 0.0000 19.4412 9.8044 -28.1126 -2.7356 -10.2542 29.8040 -0.2058 -15.4755 -23.9311 -1.2610 7.1183 -20.0664 14.9756 8.3148 23.3931 -14.6713 16.8657 -13.5118 -41.7287 1.1743 -23.7489 8.7216 -10.0570 -12.9789 8.0839 -18.6505 47.2728 -0.4637 -2.6225 22.2386 -0.0000 -0.0000 0.0000 -40.1099 8.9627 65.1534 27.9009 -39.0249 -10.0612 -0.0000 -0.0000 0.5784 35.3513 31.3354 20.2497 -7.1250 0.0000 -0.0000 5.2631 66.6506 2.7493 -0.0000 -0.0000 0.0000 120.6099 -31.9803 -5.9584 -29.9270 40.8307 -11.3619 0.0000 -0.0000 -2.1427 -19.8666 -15.3885 5.4771 7.1250 -0.0000 -0.0000 7.3343 -46.1606 -0.2112
-19.4126 15.7045 1.8207 35.0574 86.0546 42.2347 0.0000 0.0000 0.0000 -37.4128 -17.5530 8.2659 0.1105 2.1430 5.9010 0.9201 11.0254 -25.2336 12.2688 -18.5020 -66.8383 0.0000 0.0000 0.0000 17.9699 12.8531 -27.5359 -1.7642 -8.3567 23.8029 -0.1522 -16.3421 -24.5720 -1.1365 6.7703 -19.0367 14.6607 8.2650 23.3185 -14.7807 16.6490 -13.4558 -41.6365 1.1003 -23.8442 8.5937 -10.0580 -12.9086 8.3367 -18.6890 47.1520 -0.3181 -2.6411 22.2053 -0.0000 -0.0000 0.0000 -40.0805 8.2269 65.7563 28.7314 -39.7809 -10.5884 -0.0000 -0.0000 0.4941 36.5056 32.2603 21.5564 -7.1250 0.0000 -0.0000 6.6469 68.0126 3.6811 -0.0000 -0.0000 0.0000 120.8423 -32.1378 -6.5121 -30.4930 41.3123 -11.7338 0.0000 -0.0000 -1.7088 -19.8274 -15.1988 5.4000 7.1250 -0.0000 -0.0000 7.3266 -45.9579 -0.1742
-19.1523 15.6862 1.8311 41.9183 86.0266 49.2970 0.0000 0.0000 0.0000 -38.2671 -17.4422 9.6155 0.0881 1.9145 5.2694 0.8651 11.4344 -25.1618 12.2787 -18.5060 -66.8696 0.0000 0.0000 0.0000 16.0245 16.3171 -26.6234 -0.9667 -6.2600 17.5407 -0.1175 -17.5197 -25.8289 -1.1681 6.8607 -19.3032 14.2628 8.2149 23.0858 -14.9279 16.3807 -13.4323 -41.4416 1.0449 -23.9034 8.7609 -10.0243 -12.9151 8.2805 -18.6541 47.1699 -0.3661 -2.6016 22.1800 0.0000 -0.0000 0.0000 -39.8090 7.6039 66.5921 29.7146 -40.6475 -11.2232 -0.0000 -0.0000 0.2033 37.3141 32.8020 22.4359 -7.1250 0.0000 -0.0000 7.7175 68.8563 4.4239 0.0000 -0.0000 0.0000 121.1205 -32.3922 -7.0364 -31.1641 41.8705 -12.1792 0.0000 -0.0000 -1.2640 -19.6417 -15.8210 5.5576 7.1250 -0.0000 -0.0000 7.6468 -46.5809 -0.3001
-18.8855 15.6640 1.8524 48.3894 86.0759 55.9737 0.0000 0.0000 0.0000 -38.8834 -17.2381 10.8586 0.0712 1.7220 4.7380 0.8532 11.5500 -25.1729 12.2878 -18.5097 -66.8981 0.0000 0.0000 0.0000 13.7829 20.3679 -25.3974 -0.4156 -4.1379 11.4649 -0.1719 -18.0926 -27.0243 -0.7075 5.3758 -14.9835 13.9275 8.1526 22.8081 -15.0573 16.1205 -13.4306 -41.2384 0.9945 -23.9362 8.9961 -10.0497 -12.7739 8.1989 -18.6775 47.1758 -0.4402 -2.5846 22.0718 0.0000 0.0000 0.0000 -39.6163 7.0527 67.1538 30.5667 -41.3742 -11.7824 -0.0000 -0.0000 0.2003 36.7788 32.1104 21.6701 -7.1250 0.0000 -0.0000 7.1175 67.9335 3.9300 0.0000 0.0000 0.0000 121.3711 -32.6728 -7.4648 -31.8704 42.4436 -12.6533 0.0000 -0.0000 -0.8599 -19.6656 -16.0699 5.6496 7.1250 -0.0000 -0.0000 7.6855 -46.8426 -0.3515
-18.6100 15.6369 1.8820 55.4625 86.2301 63.2018 0.0000 0.0000 0.0000 -39.2767 -16.8832 12.0315 0.0610 1.5938 4.3843 0.8774 11.3915 -25.2217 12.3100 -18.5186 -66.9680 0.0000 0.0000 0.0000 11.0503 25.6265 -23.8712 -0.1203 -2.2361 6.1586 -0.4676 -18.0800 -29.2117 -0.2091 2.9444 -8.1239 13.6994 8.0588 22.5381 -15.1630 15.8708 -13.4354 -41.1133 0.9223 -23.9649 9.6287 -10.0249 -13.0423 7.6349 -18.6750 47.5404 -0.8335 -2.4796 22.2274 -0.0000 0.0000 0.0000 -39.5738 6.5079 67.4662 31.1284 -41.8412 -12.1554 -0.0000 -0.0000 0.5929 36.3305 31.7503 21.1553 -7.1250 0.0000 -0.0000 6.5600 67.4016 3.5417 -0.0000 0.0000 0.0000 121.7765 -32.9959 -7.9802 -32.6641 43.0703 -13.1921 0.0000 -0.0000 -0.3712 -19.6514 -15.7287 5.5292 7.1250 -0.0000 -0.0000 7.6153 -46.4863 -0.2809
-18.3244 15.6030 1.9169 65.3609 86.3966 73.1931 0.0000 0.0000 0.0000 -39.7105 -16.5957 13.3991 0.0522 1.4737 4.0533 0.8984 11.2347 -25.2472 12.3960 -18.5531 -67.2386 0.0000 0.0000 0.0000 7.1092 33.2510 -22.1768 -0.0149 -0.7877 2.1648 -2.1611 -14.9880 -36.4203 -0.4023 -4.0719 11.2790 13.5072 7.9252 22.2411 -15.2530 15.5722 -13.4259 -40.9432 0.8376 -23.9720 8.9037 -10.0427 -13.1043 8.1627 -18.7126 47.8225 -0.4201 -2.4708 22.8056 -0.0000 0.0000 0.0000 -39.6954 6.0308 67.6977 31.4444 -42.0997 -12.3667 -0.0000 -0.0000 1.0820 36.5498 31.8373 21.3578 -7.1250 0.0000 -0.0000 6.8609 67.5641 3.7302 -0.0000 0.0000 0.0000 122.1969 -33.4531 -8.4598 -33.5845 43.7745 -13.8248 0.0000 -0.0000 -0.0697 -19.2973 -15.5468 5.3613 7.1250 -0.0000 -0.0000 7.9005 -46.2509 -0.2454
-18.0324 15.5617 1.9547 77.0964 86.4810 85.0137 0.0000 0.0000 0.0000 -40.1459 -16.3892 14.8537 0.0431 1.3392 3.6826 0.9215 11.1360 -25.3431 12.5513 -18.6141 -67.7259 0.0000 0.0000 0.0000 3.8206 38.9092 -21.7349 -0.0002 -0.0960 0.2639 -2.2880 -16.8771 -38.5684 -0.0605 -1.5876 4.3673 13.3422 7.7911 21.9024 -15.3290 15.2698 -13.4109 -40.6907 0.7858 -23.9107 9.5810 -10.0286 -13.1291 7.7580 -18.7274 47.7372 -0.7574 -2.4314 22.4919 -0.0000 -0.0000 0.0000 -39.8654 5.6843 67.8846 31.8367 -42.4166 -12.6305 -0.0000 -0.0000 1.3858 36.8855 31.9978 21.6848 -7.1250 0.0000 -0.0000 7.3189 67.8434 4.0267 -0.0000 -0.0000 0.0000 122.4017 -33.9295 -8.7102 -34.5634 44.4978 -14.5065 0.0000 -0.0000 -0.1776 -18.7402 -15.8836 5.3048 7.1250 -0.0000 -0.0000 8.5017 -46.5260 -0.3225
-17.7374 15.5130 1.9919 89.0237 86.5452 97.0489 0.0000 0.0000 0.0000 -40.3603 -16.1391 16.0993 0.0393 1.2796 3.5185 1.0827 10.4011 -25.9684 12.6867 -18.6661 -68.1495 0.0000 0.0000 0.0000 2.4859 40.4751 -22.2923 -0.0003 0.1054 -0.2895 -1.7954 -17.6258 -36.7152 -0.0080 0.5791 -1.5914 13.3292 7.6635 21.5289 -15.3759 15.0411 -13.4251 -40.5135 0.7603 -23.7778 8.3980 -10.0387 -13.0152 8.5858 -18.6822 47.7704 -0.0920 -2.4862 22.9462 0.0000 -0.0000 0.0000 -39.9357 5.4801 67.9971 32.2874 -42.7751 -12.9356 -0.0000 -0.0000 1.6557 37.2321 32.3996 22.1553 -7.1250 0.0000 -0.0000 7.7238 68.3909 4.3463 0.0000 -0.0000 0.0000 122.5776 -34.3285 -8.8660 -35.3895 45.0882 -15.0885 0.0000 0.0000 0.0021 -18.4545 -16.2942 5.3490 7.1250 -0.0000 -0.0000 8.8744 -46.9108 -0.4217
-17.4365 15.4604 2.0306 101.9250 86.5354 110.0330 0.0000 0.0000 0.0000 -40.4680 -16.0164 17.2923 0.0411 1.3093 3.6002 1.2367 9.3007 -26.2602 12.5139 -18.5995 -67.6086 0.0000 0.0000 0.0000 3.5273 38.0724 -23.1919 -0.0001 -0.0720 0.1979 -0.5784 -18.2209 -30.1435 -0.7255 5.4425 -15.1750 13.4425 7.5275 21.1526 -15.3904 14.8540 -13.4519 -40.3972 0.7385 -23.6101 9.3806 -9.9785 -13.1617 7.6307 -18.5398 47.8195 -0.7529 -2.3998 22.5650 -0.0000 0.0000 0.0000 -39.9712 5.4605 68.0981 32.6734 -43.0775 -13.1985 -0.0000 -0.0000 1.9676 37.9952 32.9006 22.9919 -7.1250 0.0000 -0.0000 8.7806 69.1791 5.1003 -0.0000 0.0000 0.0000 122.6696 -34.7239 -8.8722 -35.8629 45.4185 -15.4247 0.0000 0.0000 0.8855 -18.6481 -16.0488 5.3300 7.1250 -0.0000 -0.0000 8.6297 -46.6841 -0.3613
